{
	"asset":{
		"generator":"Khronos glTF Blender I/O v3.6.27",
		"version":"2.0"
	},
	"extensionsUsed":[
		"KHR_materials_transmission",
		"KHR_materials_specular"
	],
	"scene":0,
	"scenes":[
		{
			"name":"Scene",
			"nodes":[
				0
			]
		}
	],
	"nodes":[
		{
			"mesh":0,
			"name":"10485_Baseball_bat_v1_max2011_iteration-2",
			"rotation":[
				0.5,
				0.5,
				0.5,
				0.5
			]
		}
	],
	"materials":[
		{
			"doubleSided":true,
			"extensions":{
				"KHR_materials_transmission":{
					"transmissionFactor":1
				},
				"KHR_materials_specular":{
					"specularColorTexture":{
						"index":0
					}
				}
			},
			"name":"10485_Baseball_bat_v1_diffuse",
			"pbrMetallicRoughness":{
				"baseColorTexture":{
					"index":1
				},
				"metallicFactor":0,
				"roughnessFactor":0.8999999761581421
			}
		}
	],
	"meshes":[
		{
			"name":"10485_Baseball_bat_v1_max2011_iteration-2",
			"primitives":[
				{
					"attributes":{
						"POSITION":0,
						"NORMAL":1,
						"TEXCOORD_0":2
					},
					"indices":3,
					"material":0
				}
			]
		}
	],
	"textures":[
		{
			"sampler":0,
			"source":0
		},
		{
			"sampler":0,
			"source":1
		}
	],
	"images":[
		{
			"mimeType":"image/png",
			"name":"Image",
			"uri":"Image.png"
		},
		{
			"mimeType":"image/jpeg",
			"name":"10485_Baseball_bat_v1_diffuse",
			"uri":"10485_Baseball_bat_v1_diffuse.jpg"
		}
	],
	"accessors":[
		{
			"bufferView":0,
			"componentType":5126,
			"count":4161,
			"max":[
				39.83367156982422,
				3.4080495834350586,
				3.1075000762939453
			],
			"min":[
				-38.376426696777344,
				-2.8892502784729004,
				-3.1898000240325928
			],
			"type":"VEC3"
		},
		{
			"bufferView":1,
			"componentType":5126,
			"count":4161,
			"type":"VEC3"
		},
		{
			"bufferView":2,
			"componentType":5126,
			"count":4161,
			"type":"VEC2"
		},
		{
			"bufferView":3,
			"componentType":5123,
			"count":22848,
			"type":"SCALAR"
		}
	],
	"bufferViews":[
		{
			"buffer":0,
			"byteLength":49932,
			"byteOffset":0,
			"target":34962
		},
		{
			"buffer":0,
			"byteLength":49932,
			"byteOffset":49932,
			"target":34962
		},
		{
			"buffer":0,
			"byteLength":33288,
			"byteOffset":99864,
			"target":34962
		},
		{
			"buffer":0,
			"byteLength":45696,
			"byteOffset":133152,
			"target":34963
		}
	],
	"samplers":[
		{
			"magFilter":9729,
			"minFilter":9987
		}
	],
	"buffers":[
		{
			"byteLength":178848,
			"uri":"untitled.bin"
		}
	]
}
